<svg width="193" height="84" viewBox="0 0 193 84" fill="none" xmlns="http://www.w3.org/2000/svg">
<path d="M0.648 47.432C0.712 44.232 1 41.192 1.512 38.312C2.024 35.432 2.696 32.616 3.528 29.864C4.04 28.2 4.68 26.568 5.448 24.968C6.216 23.368 7.048 21.832 7.944 20.36C8.84 19.016 9.864 17.896 11.016 17C11.976 16.36 13.064 16.072 14.28 16.136C15.432 16.392 16.232 17.032 16.68 18.056C17.128 19.08 16.968 19.976 16.2 20.744C15.368 21.704 14.696 22.76 14.184 23.912C13.672 25 13.192 26.12 12.744 27.272C12.04 29.128 11.4 31.016 10.824 32.936C10.312 34.856 9.832 36.84 9.384 38.888C8.424 44.008 8.136 49.16 8.52 54.344C8.776 57.416 9.288 60.424 10.056 63.368C10.888 66.248 11.912 69.128 13.128 72.008C13.512 72.84 13.928 73.736 14.376 74.696C14.824 75.592 15.336 76.424 15.912 77.192C16.296 77.896 16.904 78.248 17.736 78.248C18.632 78.12 19.24 78.376 19.56 79.016C19.88 79.72 19.816 80.424 19.368 81.128C18.92 81.896 18.248 82.376 17.352 82.568C16.52 82.824 15.656 82.76 14.76 82.376C13.928 81.928 13.192 81.384 12.552 80.744C11.912 80.168 11.336 79.528 10.824 78.824C9.032 76.2 7.528 73.512 6.312 70.76C5.16 67.944 4.072 65.064 3.048 62.12C2.28 59.56 1.704 57.064 1.32 54.632C0.936 52.136 0.712 49.736 0.648 47.432ZM49.5495 35.336C50.7015 35.528 51.7895 35.72 52.8135 35.912C53.8375 36.04 54.8615 36.264 55.8855 36.584C57.1655 37.032 58.4135 37.544 59.6295 38.12C60.9095 38.696 62.0615 39.496 63.0855 40.52C66.2215 44.04 67.4055 48.104 66.6375 52.712C65.7415 58.216 63.4055 62.92 59.6295 66.824C56.1095 70.536 52.1735 73.256 47.8215 74.984C43.4695 76.712 38.7655 77.704 33.7095 77.96C31.6615 77.96 29.9655 77.32 28.6215 76.04C27.4055 74.888 26.8935 73.448 27.0855 71.72C27.2135 70.632 27.7255 69.896 28.6215 69.512C29.5175 69.128 30.3815 69.288 31.2135 69.992C32.0455 70.632 32.8135 70.856 33.5175 70.664C34.2855 70.472 35.0535 70.248 35.8215 69.992C36.0775 69.928 36.1735 69.8 36.1095 69.608C36.1095 69.416 36.0775 69.256 36.0135 69.128C35.7575 65.8 35.1815 62.568 34.2855 59.432C33.4535 56.296 32.8135 53.096 32.3655 49.832C31.9175 46.504 31.4375 43.208 30.9255 39.944C30.4775 36.616 30.1575 33.288 29.9655 29.96C29.8375 28.168 29.7095 26.408 29.5815 24.68C29.4535 22.952 29.3255 21.224 29.1975 19.496C29.1975 18.984 29.2295 18.504 29.2935 18.056C29.3575 17.608 29.3895 17.16 29.3895 16.712C29.4535 15.816 29.5495 14.984 29.6775 14.216C29.8055 13.448 29.7415 12.648 29.4855 11.816C29.3575 10.92 29.4535 10.056 29.7735 9.224C30.0935 8.392 30.5415 7.688 31.1175 7.112C33.5495 4.552 36.2055 2.76 39.0855 1.736C42.0295 0.647995 45.2615 0.551994 48.7815 1.44799C51.2135 2.088 53.2935 3.432 55.0215 5.47999C56.7495 7.46399 57.7415 9.736 57.9975 12.296C58.2535 13.896 58.2215 15.464 57.9015 17C57.6455 18.472 57.2615 19.976 56.7495 21.512C56.1095 23.496 55.2775 25.448 54.2535 27.368C53.2295 29.224 52.1735 31.048 51.0855 32.84C50.8295 33.224 50.5735 33.64 50.3175 34.088C50.1255 34.472 49.8695 34.888 49.5495 35.336ZM39.4695 33.416C39.9175 33.224 40.2055 32.968 40.3335 32.648C40.4615 32.264 40.6535 31.944 40.9095 31.688C42.1895 30.024 43.3735 28.296 44.4615 26.504C45.5495 24.648 46.5095 22.728 47.3415 20.744C47.7895 19.72 48.1735 18.696 48.4935 17.672C48.8775 16.584 49.0695 15.496 49.0695 14.408C49.0695 11.528 47.6935 9.992 44.9415 9.8C43.8535 9.8 42.7975 9.96 41.7735 10.28C40.7495 10.6 39.7895 11.016 38.8935 11.528C38.8295 11.592 38.7015 11.688 38.5095 11.816C38.3815 11.88 38.3495 12.04 38.4135 12.296C38.9255 13.192 38.7335 14.056 37.8375 14.888C37.7095 15.016 37.6455 15.24 37.6455 15.56C37.7095 15.816 37.7735 16.072 37.8375 16.328C37.9655 17.736 38.0935 19.176 38.2215 20.648C38.3495 22.056 38.4775 23.432 38.6055 24.776C38.6695 26.184 38.7655 27.624 38.8935 29.096C39.0215 30.504 39.2135 31.944 39.4695 33.416ZM41.5815 67.976C42.2855 67.656 42.9255 67.368 43.5015 67.112C44.1415 66.792 44.7495 66.504 45.3255 66.248C47.5655 65.16 49.5815 63.88 51.3735 62.408C53.2295 60.872 54.7335 58.984 55.8855 56.744C56.5895 55.464 57.1335 54.12 57.5175 52.712C57.9015 51.24 58.0295 49.768 57.9015 48.296C57.8375 47.144 57.5495 46.28 57.0375 45.704C56.5255 45.064 55.6935 44.584 54.5415 44.264C53.5175 43.944 52.4615 43.816 51.3735 43.88C50.2855 43.88 49.2295 43.944 48.2055 44.072C46.9255 44.136 45.6455 44.36 44.3655 44.744C43.1495 45.128 41.9015 45.384 40.6215 45.512C40.2375 45.512 40.0455 45.64 40.0455 45.896C40.0455 46.088 40.0455 46.344 40.0455 46.664C40.2375 48.648 40.3655 50.664 40.4295 52.712C40.5575 54.696 40.6535 56.712 40.7175 58.76C40.8455 60.168 40.9415 61.64 41.0055 63.176C41.1335 64.712 41.3255 66.312 41.5815 67.976ZM102.662 55.784C102.342 62.056 100.038 67.912 95.7502 73.352C94.9823 74.376 94.0863 75.272 93.0623 76.04C92.0383 76.744 90.8863 77.288 89.6063 77.672C87.1103 78.248 84.7103 77.96 82.4062 76.808C81.5743 76.296 80.7743 75.688 80.0063 74.984C79.2383 74.216 78.5983 73.416 78.0863 72.584C76.4223 69.96 75.3023 67.272 74.7263 64.52C74.1503 61.704 73.9583 58.824 74.1503 55.88C74.4063 53.256 74.9823 50.76 75.8783 48.392C76.7743 45.96 78.0863 43.752 79.8143 41.768C81.2863 40.168 83.0463 39.176 85.0943 38.792C86.0543 38.536 86.9183 38.536 87.6863 38.792C88.4543 38.984 89.1903 39.368 89.8943 39.944C90.0863 40.136 90.3103 40.264 90.5663 40.328C90.8223 40.328 91.1103 40.328 91.4303 40.328C93.1583 40.136 94.6943 40.392 96.0383 41.096C97.4463 41.8 98.6623 42.856 99.6863 44.264C100.838 45.864 101.606 47.592 101.99 49.448C102.438 51.24 102.662 53.352 102.662 55.784ZM89.0303 48.584C88.3263 48.584 87.5903 48.68 86.8223 48.872C86.1823 48.872 85.7023 49.032 85.3823 49.352C85.0623 49.672 84.7743 50.12 84.5182 50.696C83.6223 53.064 83.1423 55.432 83.0782 57.8C83.0782 60.168 83.4303 62.568 84.1343 65C84.5183 66.024 85.1263 67.08 85.9583 68.168C86.4063 68.616 86.7263 68.872 86.9183 68.936C87.1743 68.936 87.5263 68.712 87.9743 68.264C88.5503 67.688 89.0943 67.112 89.6063 66.536C90.1823 65.896 90.6623 65.224 91.0463 64.52C91.3663 63.752 91.6863 62.952 92.0063 62.12C92.3903 61.288 92.6783 60.456 92.8703 59.624C93.1903 58.408 93.4463 57.192 93.6383 55.976C93.8303 54.696 93.7663 53.416 93.4463 52.136C93.1263 50.792 92.6463 49.864 92.0063 49.352C91.3663 48.84 90.3743 48.584 89.0303 48.584ZM118.984 67.88C118.984 68.776 119.016 69.704 119.081 70.664C119.145 71.624 119.113 72.616 118.984 73.64C118.984 73.896 118.984 74.216 118.984 74.6C118.984 74.92 118.953 75.272 118.889 75.656C118.697 76.936 118.025 77.704 116.873 77.96C115.593 78.024 114.569 77.64 113.801 76.808C113.353 76.296 113.001 75.72 112.745 75.08C112.553 74.44 112.329 73.8 112.073 73.16C111.817 72.008 111.593 70.856 111.401 69.704C111.273 68.552 111.177 67.4 111.113 66.248C110.729 62.728 110.473 59.208 110.345 55.688C110.281 52.168 110.185 48.648 110.057 45.128C109.993 40.072 109.929 35.048 109.865 30.056C109.865 25.064 109.897 20.04 109.961 14.984C109.961 14.536 109.961 14.12 109.961 13.736C110.025 13.288 110.121 12.84 110.249 12.392C110.569 11.496 111.081 10.76 111.785 10.184C112.489 9.544 113.321 9.224 114.281 9.224C116.265 9.224 117.545 10.28 118.121 12.392C118.313 12.968 118.409 13.544 118.409 14.12C118.665 18.28 118.825 22.44 118.889 26.6C119.017 30.76 119.113 34.92 119.177 39.08C119.177 39.528 119.177 40.584 119.177 42.248C119.177 43.912 119.177 45.896 119.177 48.2C119.177 50.44 119.145 52.808 119.081 55.304C119.081 57.8 119.081 60.168 119.081 62.408C119.081 64.584 119.049 66.408 118.984 67.88ZM149.987 72.776C151.459 71.688 152.611 70.536 153.443 69.32C154.595 67.72 155.715 66.088 156.803 64.424C157.955 62.76 158.947 61.032 159.779 59.24C159.843 58.984 159.907 58.792 159.971 58.664C160.035 58.472 160.067 58.28 160.067 58.088C160.131 56.744 160.899 55.912 162.371 55.592C163.843 55.464 164.931 56.008 165.635 57.224C166.019 57.672 166.243 58.152 166.307 58.664C166.435 59.112 166.499 59.624 166.499 60.2C166.243 63.592 165.347 66.856 163.811 69.992C161.891 73.768 159.331 76.904 156.131 79.4C155.427 79.976 154.691 80.456 153.923 80.84C153.219 81.288 152.419 81.608 151.523 81.8C149.923 82.184 148.323 82.024 146.723 81.32C145.123 80.68 143.843 79.656 142.883 78.248C142.307 77.288 141.795 76.296 141.347 75.272C140.899 74.184 140.515 73.096 140.195 72.008C139.363 69.64 138.755 67.208 138.37 64.712C137.986 62.216 137.634 59.72 137.314 57.224C136.802 53.64 136.418 49.992 136.162 46.28C135.842 42.568 135.682 38.856 135.682 35.144C135.682 34.44 135.618 34.024 135.49 33.896C135.362 33.768 134.914 33.768 134.146 33.896C133.314 34.088 132.482 34.312 131.65 34.568C130.754 34.76 129.858 34.92 128.962 35.048C127.874 35.304 126.722 35.144 125.506 34.568C124.354 33.864 123.714 32.904 123.586 31.688C123.458 30.408 123.842 29.32 124.738 28.424C125.634 27.656 126.594 27.112 127.618 26.792C128.77 26.472 129.922 26.152 131.074 25.832C132.162 25.512 133.282 25.224 134.434 24.968C135.202 24.84 135.682 24.712 135.874 24.584C136.002 24.392 136.098 23.88 136.162 23.048C136.226 20.872 136.418 18.728 136.738 16.616C136.994 14.44 137.41 12.264 137.986 10.088C138.242 9.32 138.466 8.552 138.659 7.784C138.915 6.952 139.267 6.184 139.715 5.47999C140.099 4.968 140.483 4.52 140.867 4.13599C141.251 3.688 141.699 3.336 142.211 3.08C143.427 2.248 144.771 2.184 146.243 2.888C146.883 3.336 147.267 3.88 147.395 4.51999C147.587 5.15999 147.619 5.832 147.491 6.536C147.363 7.944 147.107 9.352 146.723 10.76C146.339 12.104 146.083 13.512 145.955 14.984C145.827 16.2 145.667 17.416 145.475 18.632C145.347 19.848 145.219 21.096 145.091 22.376C145.091 22.952 145.123 23.304 145.187 23.432C145.315 23.496 145.699 23.528 146.339 23.528C147.619 23.528 148.835 23.496 149.987 23.432C151.139 23.368 152.323 23.336 153.539 23.336C155.715 23.336 157.539 24.168 159.011 25.832C159.395 26.152 159.683 26.536 159.875 26.984C160.131 27.368 160.291 27.784 160.355 28.232C160.483 29.32 160.131 30.28 159.299 31.112C158.467 31.88 157.603 32.072 156.707 31.688C156.579 31.688 156.419 31.688 156.227 31.688C156.099 31.624 155.939 31.624 155.747 31.688C154.339 32.2 152.899 32.424 151.427 32.36C150.019 32.296 148.579 32.36 147.107 32.552H145.763C144.995 32.552 144.611 32.936 144.611 33.704C144.739 34.92 144.803 36.136 144.803 37.352C144.803 38.504 144.835 39.688 144.898 40.904C145.027 44.04 145.251 47.176 145.571 50.312C145.891 53.448 146.307 56.552 146.819 59.624C147.011 61.224 147.235 62.824 147.491 64.424C147.811 65.96 148.195 67.528 148.643 69.128C148.771 69.704 148.963 70.28 149.219 70.856C149.475 71.432 149.731 72.072 149.987 72.776ZM192.812 44.84C192.812 47.592 192.556 50.28 192.044 52.904C191.532 55.528 190.86 58.152 190.028 60.776C188.62 65.512 186.604 70.184 183.98 74.792C183.276 76.008 182.508 77.192 181.676 78.344C180.844 79.496 179.788 80.456 178.508 81.224C178.188 81.48 177.868 81.704 177.548 81.896C177.228 82.088 176.876 82.248 176.492 82.376C175.34 82.952 174.54 82.824 174.092 81.992C173.58 81.288 173.676 80.52 174.38 79.688C174.38 79.496 174.476 79.4 174.668 79.4C176.14 77.992 177.388 76.456 178.412 74.792C179.436 73.064 180.332 71.272 181.1 69.416C182.188 66.792 183.084 64.2 183.788 61.64C184.556 59.016 185.164 56.328 185.612 53.576C186.252 49.608 186.444 45.672 186.188 41.768C185.996 37.8 185.26 33.928 183.98 30.152C183.532 28.552 182.956 27.016 182.252 25.544C181.612 24.008 180.844 22.6 179.948 21.32C179.82 21.128 179.724 20.968 179.66 20.84C179.596 20.648 179.5 20.488 179.372 20.36C178.796 18.952 178.988 17.8 179.948 16.904C180.972 15.88 182.188 15.784 183.596 16.616C184.492 17.192 185.26 17.928 185.9 18.824C186.54 19.656 187.116 20.552 187.628 21.512C188.524 22.984 189.26 24.52 189.836 26.12C190.412 27.72 190.924 29.352 191.372 31.016C191.692 32.04 191.884 33.128 191.948 34.28C192.076 35.432 192.268 36.584 192.524 37.736C192.844 40.04 192.94 42.408 192.812 44.84Z"/>
</svg>
