<svg width="85" height="83" viewBox="0 0 85 83" xmlns="http://www.w3.org/2000/svg">
<path d="M42.5 0C19.0329 0 0 19.0514 0 42.5491C0 61.3488 12.1762 77.2976 29.0665 82.9247C31.1879 83.3183 31.875 81.9993 31.875 80.8788V72.9576C20.0529 75.5318 17.5915 67.9368 17.5915 67.9368C15.6577 63.0188 12.8704 61.7104 12.8704 61.7104C9.01354 59.0688 13.1644 59.1256 13.1644 59.1256C17.4321 59.4234 19.6775 63.5117 19.6775 63.5117C23.4671 70.0146 29.619 68.1353 32.045 67.0468C32.424 64.2988 33.5254 62.4196 34.7438 61.3594C25.3052 60.2779 15.3815 56.6293 15.3815 40.3295C15.3815 35.681 17.0425 31.887 19.759 28.9086C19.3198 27.8342 17.8642 23.5049 20.1733 17.6473C20.1733 17.6473 23.7433 16.5055 31.8644 22.0085C35.2537 21.0654 38.8875 20.5938 42.5 20.5761C46.1125 20.5938 49.7498 21.0654 53.1462 22.0085C61.2602 16.5055 64.8231 17.6473 64.8231 17.6473C67.1358 23.5084 65.6802 27.8378 65.241 28.9086C67.9681 31.887 69.615 35.6845 69.615 40.3295C69.615 56.6719 59.6735 60.2708 50.2102 61.3239C51.7331 62.643 53.125 65.2314 53.125 69.2026V80.8788C53.125 82.0099 53.805 83.3396 55.9619 82.9212C72.8379 77.287 85 61.3417 85 42.5491C85 19.0514 65.9706 0 42.5 0Z" />
</svg>
