<svg width="93" height="93" viewBox="0 0 93 93" xmlns="http://www.w3.org/2000/svg">
<g clip-path="url(#clip0_115_2)">
<path d="M93 17.6584C89.5784 19.1774 85.901 20.2004 82.0415 20.6615C85.9824 18.3016 89.0087 14.5622 90.4309 10.106C86.7457 12.2915 82.6615 13.8802 78.3137 14.7366C74.8379 11.0282 69.874 8.711 64.387 8.711C52.0684 8.711 43.0164 20.2042 45.7986 32.1354C29.946 31.341 15.8875 23.746 6.47513 12.2024C1.47638 20.7777 3.88275 31.9959 12.3768 37.6766C9.2535 37.5759 6.3085 36.7195 3.73937 35.2896C3.53012 44.1285 9.86575 52.3977 19.0418 54.2384C16.3564 54.9669 13.4153 55.1374 10.4238 54.5639C12.8495 62.1434 19.8943 67.6575 28.2487 67.8125C20.2275 74.1016 10.1215 76.911 0 75.7175C8.44362 81.1309 18.476 84.289 29.2485 84.289C64.6738 84.289 84.6881 54.3701 83.4791 27.5357C87.2069 24.8426 90.4425 21.483 93 17.6584Z" />
</g>
<defs>
<clipPath id="clip0_115_2">
<rect width="93" height="93"/>
</clipPath>
</defs>
</svg>
